<?xml version="1.0" encoding="UTF-8" standalone="no"?>
<!DOCTYPE svg PUBLIC "-//W3C//DTD SVG 1.1//EN"
 "http://www.w3.org/Graphics/SVG/1.1/DTD/svg11.dtd">
<!-- Generated by graphviz version 2.38.0 (20140413.2041)
 -->
<!-- Title: %3 Pages: 1 -->
<svg width="953pt" height="463pt"
 viewBox="0.00 0.00 953.21 463.38" xmlns="http://www.w3.org/2000/svg" xmlns:xlink="http://www.w3.org/1999/xlink">
<g id="graph0" class="graph" transform="scale(1 1) rotate(0) translate(4 459.378)">
<title>%3</title>
<polygon fill="white" stroke="none" points="-4,4 -4,-459.378 949.206,-459.378 949.206,4 -4,4"/>
<!-- 0 -->
<g id="node1" class="node"><title>0</title>
<ellipse fill="none" stroke="black" cx="480.688" cy="-422.597" rx="32.5638" ry="32.5638"/>
<text text-anchor="middle" x="480.688" y="-418.397" font-family="Times,serif" font-size="14.00">Sex&lt;1</text>
</g>
<!-- 1 -->
<g id="node2" class="node"><title>1</title>
<ellipse fill="none" stroke="black" cx="379.688" cy="-298.191" rx="41.7496" ry="41.7496"/>
<text text-anchor="middle" x="379.688" y="-293.991" font-family="Times,serif" font-size="14.00">Pclass&lt;3</text>
</g>
<!-- 0&#45;&gt;1 -->
<g id="edge1" class="edge"><title>0&#45;&gt;1</title>
<path fill="none" stroke="#0000ff" d="M460.249,-396.826C446.53,-380.2 428.158,-357.934 412.423,-338.864"/>
<polygon fill="#0000ff" stroke="#0000ff" points="414.926,-336.398 405.862,-330.912 409.527,-340.853 414.926,-336.398"/>
<text text-anchor="middle" x="474.301" y="-360.615" font-family="Times,serif" font-size="14.00">yes, missing</text>
</g>
<!-- 2 -->
<g id="node3" class="node"><title>2</title>
<ellipse fill="none" stroke="black" cx="559.688" cy="-298.191" rx="38.8428" ry="38.8428"/>
<text text-anchor="middle" x="559.688" y="-293.991" font-family="Times,serif" font-size="14.00">Age&lt;13</text>
</g>
<!-- 0&#45;&gt;2 -->
<g id="edge2" class="edge"><title>0&#45;&gt;2</title>
<path fill="none" stroke="#ff0000" d="M498.024,-394.734C508.407,-378.647 521.81,-357.879 533.467,-339.817"/>
<polygon fill="#ff0000" stroke="#ff0000" points="536.547,-341.5 539.029,-331.2 530.665,-337.705 536.547,-341.5"/>
<text text-anchor="middle" x="527.688" y="-360.615" font-family="Times,serif" font-size="14.00">no</text>
</g>
<!-- 3 -->
<g id="node4" class="node"><title>3</title>
<ellipse fill="none" stroke="black" cx="167.688" cy="-146.283" rx="60.067" ry="60.067"/>
<text text-anchor="middle" x="167.688" y="-142.083" font-family="Times,serif" font-size="14.00">Group_size&lt;6</text>
</g>
<!-- 1&#45;&gt;3 -->
<g id="edge3" class="edge"><title>1&#45;&gt;3</title>
<path fill="none" stroke="#0000ff" d="M346.095,-273.438C313.64,-250.488 263.838,-215.272 225.092,-187.874"/>
<polygon fill="#0000ff" stroke="#0000ff" points="226.688,-184.717 216.502,-181.801 222.647,-190.432 226.688,-184.717"/>
<text text-anchor="middle" x="327.301" y="-227.366" font-family="Times,serif" font-size="14.00">yes, missing</text>
</g>
<!-- 4 -->
<g id="node5" class="node"><title>4</title>
<ellipse fill="none" stroke="black" cx="379.688" cy="-146.283" rx="50.912" ry="50.912"/>
<text text-anchor="middle" x="379.688" y="-142.083" font-family="Times,serif" font-size="14.00">Fare&lt;23.35</text>
</g>
<!-- 1&#45;&gt;4 -->
<g id="edge4" class="edge"><title>1&#45;&gt;4</title>
<path fill="none" stroke="#ff0000" d="M379.688,-256.228C379.688,-241.08 379.688,-223.583 379.688,-207.104"/>
<polygon fill="#ff0000" stroke="#ff0000" points="383.188,-207.005 379.688,-197.005 376.188,-207.005 383.188,-207.005"/>
<text text-anchor="middle" x="386.688" y="-227.366" font-family="Times,serif" font-size="14.00">no</text>
</g>
<!-- 5 -->
<g id="node10" class="node"><title>5</title>
<ellipse fill="none" stroke="black" cx="559.688" cy="-146.283" rx="60.067" ry="60.067"/>
<text text-anchor="middle" x="559.688" y="-142.083" font-family="Times,serif" font-size="14.00">Group_size&lt;5</text>
</g>
<!-- 2&#45;&gt;5 -->
<g id="edge9" class="edge"><title>2&#45;&gt;5</title>
<path fill="none" stroke="#0000ff" d="M559.688,-259.363C559.688,-246.396 559.688,-231.445 559.688,-216.776"/>
<polygon fill="#0000ff" stroke="#0000ff" points="563.188,-216.692 559.688,-206.692 556.188,-216.692 563.188,-216.692"/>
<text text-anchor="middle" x="594.301" y="-227.366" font-family="Times,serif" font-size="14.00">yes, missing</text>
</g>
<!-- 6 -->
<g id="node11" class="node"><title>6</title>
<ellipse fill="none" stroke="black" cx="766.688" cy="-146.283" rx="59.5981" ry="59.5981"/>
<text text-anchor="middle" x="766.688" y="-142.083" font-family="Times,serif" font-size="14.00">Fare&lt;26.2687</text>
</g>
<!-- 2&#45;&gt;6 -->
<g id="edge10" class="edge"><title>2&#45;&gt;6</title>
<path fill="none" stroke="#ff0000" d="M590.677,-274.748C622.134,-251.968 671.549,-216.182 710.022,-188.32"/>
<polygon fill="#ff0000" stroke="#ff0000" points="712.505,-190.843 718.551,-182.143 708.399,-185.174 712.505,-190.843"/>
<text text-anchor="middle" x="664.688" y="-227.366" font-family="Times,serif" font-size="14.00">no</text>
</g>
<!-- 7 -->
<g id="node6" class="node"><title>7</title>
<polygon fill="none" stroke="black" points="97.5632,-36 -0.188225,-36 -0.188225,-0 97.5632,-0 97.5632,-36"/>
<text text-anchor="middle" x="48.6875" y="-13.8" font-family="Times,serif" font-size="14.00">leaf=0.178313</text>
</g>
<!-- 3&#45;&gt;7 -->
<g id="edge5" class="edge"><title>3&#45;&gt;7</title>
<path fill="none" stroke="#0000ff" d="M126.58,-102.007C116.091,-90.9355 104.846,-79.0391 94.46,-68 87.0416,-60.1148 78.9724,-51.4921 71.7042,-43.7082"/>
<polygon fill="#0000ff" stroke="#0000ff" points="74.1381,-41.1862 64.7569,-36.2624 69.0199,-45.9617 74.1381,-41.1862"/>
<text text-anchor="middle" x="129.301" y="-56.8" font-family="Times,serif" font-size="14.00">yes, missing</text>
</g>
<!-- 8 -->
<g id="node7" class="node"><title>8</title>
<polygon fill="none" stroke="black" points="220.063,-36 115.312,-36 115.312,-0 220.063,-0 220.063,-36"/>
<text text-anchor="middle" x="167.688" y="-13.8" font-family="Times,serif" font-size="14.00">leaf=0.0666667</text>
</g>
<!-- 3&#45;&gt;8 -->
<g id="edge6" class="edge"><title>3&#45;&gt;8</title>
<path fill="none" stroke="#ff0000" d="M167.688,-85.8394C167.688,-72.0713 167.688,-58.0679 167.688,-46.4598"/>
<polygon fill="#ff0000" stroke="#ff0000" points="171.188,-46.1502 167.688,-36.1502 164.188,-46.1502 171.188,-46.1502"/>
<text text-anchor="middle" x="174.688" y="-56.8" font-family="Times,serif" font-size="14.00">no</text>
</g>
<!-- 9 -->
<g id="node8" class="node"><title>9</title>
<polygon fill="none" stroke="black" points="342.063,-36 237.312,-36 237.312,-0 342.063,-0 342.063,-36"/>
<text text-anchor="middle" x="289.688" y="-13.8" font-family="Times,serif" font-size="14.00">leaf=0.0347107</text>
</g>
<!-- 4&#45;&gt;9 -->
<g id="edge7" class="edge"><title>4&#45;&gt;9</title>
<path fill="none" stroke="#0000ff" d="M350.716,-104.631C336.625,-84.8604 320.123,-61.7058 307.834,-44.4623"/>
<polygon fill="#0000ff" stroke="#0000ff" points="310.481,-42.1453 301.827,-36.0332 304.78,-46.208 310.481,-42.1453"/>
<text text-anchor="middle" x="359.301" y="-56.8" font-family="Times,serif" font-size="14.00">yes, missing</text>
</g>
<!-- 10 -->
<g id="node9" class="node"><title>10</title>
<polygon fill="none" stroke="black" points="461.725,-36 359.65,-36 359.65,-0 461.725,-0 461.725,-36"/>
<text text-anchor="middle" x="410.688" y="-13.8" font-family="Times,serif" font-size="14.00">leaf=&#45;0.135484</text>
</g>
<!-- 4&#45;&gt;10 -->
<g id="edge8" class="edge"><title>4&#45;&gt;10</title>
<path fill="none" stroke="#ff0000" d="M391.584,-96.8199C395.816,-79.581 400.427,-60.7967 404.059,-46.0027"/>
<polygon fill="#ff0000" stroke="#ff0000" points="407.526,-46.5608 406.511,-36.0147 400.728,-44.8919 407.526,-46.5608"/>
<text text-anchor="middle" x="408.688" y="-56.8" font-family="Times,serif" font-size="14.00">no</text>
</g>
<!-- 11 -->
<g id="node12" class="node"><title>11</title>
<polygon fill="none" stroke="black" points="577.563,-36 479.812,-36 479.812,-0 577.563,-0 577.563,-36"/>
<text text-anchor="middle" x="528.688" y="-13.8" font-family="Times,serif" font-size="14.00">leaf=0.153846</text>
</g>
<!-- 5&#45;&gt;11 -->
<g id="edge11" class="edge"><title>5&#45;&gt;11</title>
<path fill="none" stroke="#0000ff" d="M545.458,-87.316C541.912,-72.873 538.278,-58.0666 535.302,-45.9466"/>
<polygon fill="#0000ff" stroke="#0000ff" points="538.66,-44.9412 532.876,-36.0639 531.861,-46.61 538.66,-44.9412"/>
<text text-anchor="middle" x="575.301" y="-56.8" font-family="Times,serif" font-size="14.00">yes, missing</text>
</g>
<!-- 12 -->
<g id="node13" class="node"><title>12</title>
<polygon fill="none" stroke="black" points="697.725,-36 595.65,-36 595.65,-0 697.725,-0 697.725,-36"/>
<text text-anchor="middle" x="646.688" y="-13.8" font-family="Times,serif" font-size="14.00">leaf=&#45;0.130435</text>
</g>
<!-- 5&#45;&gt;12 -->
<g id="edge12" class="edge"><title>5&#45;&gt;12</title>
<path fill="none" stroke="#ff0000" d="M594.094,-96.3111C600.63,-86.9332 607.391,-77.1781 613.688,-68 618.859,-60.4623 624.429,-52.234 629.494,-44.7096"/>
<polygon fill="#ff0000" stroke="#ff0000" points="632.483,-46.5363 635.153,-36.2834 626.672,-42.6335 632.483,-46.5363"/>
<text text-anchor="middle" x="630.688" y="-56.8" font-family="Times,serif" font-size="14.00">no</text>
</g>
<!-- 13 -->
<g id="node14" class="node"><title>13</title>
<polygon fill="none" stroke="black" points="817.725,-36 715.65,-36 715.65,-0 817.725,-0 817.725,-36"/>
<text text-anchor="middle" x="766.688" y="-13.8" font-family="Times,serif" font-size="14.00">leaf=&#45;0.159102</text>
</g>
<!-- 6&#45;&gt;13 -->
<g id="edge13" class="edge"><title>6&#45;&gt;13</title>
<path fill="none" stroke="#0000ff" d="M766.688,-86.578C766.688,-72.4741 766.688,-58.0736 766.688,-46.2099"/>
<polygon fill="#0000ff" stroke="#0000ff" points="770.188,-46.1091 766.688,-36.1091 763.188,-46.1091 770.188,-46.1091"/>
<text text-anchor="middle" x="801.301" y="-56.8" font-family="Times,serif" font-size="14.00">yes, missing</text>
</g>
<!-- 14 -->
<g id="node15" class="node"><title>14</title>
<polygon fill="none" stroke="black" points="945.225,-36 836.15,-36 836.15,-0 945.225,-0 945.225,-36"/>
<text text-anchor="middle" x="890.688" y="-13.8" font-family="Times,serif" font-size="14.00">leaf=&#45;0.0629371</text>
</g>
<!-- 6&#45;&gt;14 -->
<g id="edge14" class="edge"><title>6&#45;&gt;14</title>
<path fill="none" stroke="#ff0000" d="M807.978,-103.233C827.406,-83.4466 849.9,-60.5388 866.521,-43.6118"/>
<polygon fill="#ff0000" stroke="#ff0000" points="869.203,-45.8757 873.712,-36.2882 864.208,-40.9713 869.203,-45.8757"/>
<text text-anchor="middle" x="861.688" y="-56.8" font-family="Times,serif" font-size="14.00">no</text>
</g>
</g>
</svg>
